<svg width="200" height="231" viewBox="0 0 200 231" fill="none" xmlns="http://www.w3.org/2000/svg">
<g filter="url(#filter0_d_306_3132)">
<path d="M50.0001 50C50.0001 41.7157 56.7158 35 65.0001 35H134.677C142.961 35 149.677 41.7157 149.677 50V117.677C149.677 123.139 146.707 128.17 141.925 130.809L105.449 150.943C100.781 153.52 95.0964 153.425 90.5173 150.694L57.3171 130.895C52.7795 128.188 50.0001 123.295 50.0001 118.012V50Z" fill="#A8240B" fill-opacity="0.47" shape-rendering="crispEdges"/>
</g>
<g filter="url(#filter1_d_306_3132)">
<path d="M68.731 72.5703C68.731 64.286 75.4467 57.5703 83.731 57.5703H115.945C124.23 57.5703 130.945 64.286 130.945 72.5703V105.847C130.945 111.309 127.976 116.339 123.194 118.979L106.173 128.374C101.505 130.95 95.8204 130.856 91.2412 128.125L76.048 119.064C71.5104 116.358 68.731 111.464 68.731 106.181V72.5703Z" fill="#A8240B"/>
</g>
<path d="M93.8224 102.735C93.8224 103.528 93.4864 104.214 92.8144 104.793C92.6091 104.97 92.3851 105.148 92.1424 105.325L89.1324 107.495H93.8224V109.455H86.2624V106.795L91.3024 103.155V102.455C91.3024 101.895 91.0224 101.615 90.4624 101.615H86.5424V99.6551H91.0224C92.0024 99.6551 92.7118 99.8791 93.1504 100.327C93.5984 100.766 93.8224 101.475 93.8224 102.455V102.735ZM99.1397 107.495H93.9597V105.535L97.3197 99.6551H100.12L96.7597 105.535H99.1397V103.435H101.66V105.535H102.64V107.495H101.66V109.455H99.1397V107.495ZM102.785 109.455L106.985 99.6551H109.365L105.305 109.455H102.785ZM109.501 99.6551H117.061V101.615L113.841 109.455H111.041L114.401 101.615H109.501V99.6551Z" fill="white"/>
<path d="M99.1071 69.2834C98.4097 69.4134 97.5902 69.6942 96.3312 70.1258L95.6717 70.3502C92.211 71.5357 90.4812 72.1272 90.0473 72.7464C89.6215 73.3518 89.6123 75.1264 89.6123 78.6481L99.1071 75.4832V69.2834ZM99.1071 77.3016L89.6123 80.4665V80.6979C89.6123 87.1866 94.4909 90.3354 97.5523 91.6727C98.1392 91.9294 98.519 92.0951 99.1071 92.1699V77.3016ZM100.833 92.171V77.3016L110.328 80.4665V80.6979C110.328 87.1866 105.45 90.3354 102.388 91.6727C101.801 91.9294 101.422 92.0962 100.833 92.171ZM100.833 75.4832V69.2822C101.531 69.4123 102.35 69.6931 103.609 70.1247L104.269 70.3502C107.73 71.5345 109.459 72.1261 109.893 72.7452C110.319 73.3506 110.328 75.1253 110.328 78.6458L100.833 75.4809V75.4832Z" fill="white"/>
<defs>
<filter id="filter0_d_306_3132" x="0" y="0" width="199.677" height="217.812" filterUnits="userSpaceOnUse" color-interpolation-filters="sRGB">
<feFlood flood-opacity="0" result="BackgroundImageFix"/>
<feColorMatrix in="SourceAlpha" type="matrix" values="0 0 0 0 0 0 0 0 0 0 0 0 0 0 0 0 0 0 127 0" result="hardAlpha"/>
<feOffset dy="15"/>
<feGaussianBlur stdDeviation="25"/>
<feComposite in2="hardAlpha" operator="out"/>
<feColorMatrix type="matrix" values="0 0 0 0 0.854167 0 0 0 0 0.136014 0 0 0 0 0 0 0 0 0.32 0"/>
<feBlend mode="normal" in2="BackgroundImageFix" result="effect1_dropShadow_306_3132"/>
<feBlend mode="normal" in="SourceGraphic" in2="effect1_dropShadow_306_3132" result="shape"/>
</filter>
<filter id="filter1_d_306_3132" x="18.731" y="57.5703" width="162.214" height="172.671" filterUnits="userSpaceOnUse" color-interpolation-filters="sRGB">
<feFlood flood-opacity="0" result="BackgroundImageFix"/>
<feColorMatrix in="SourceAlpha" type="matrix" values="0 0 0 0 0 0 0 0 0 0 0 0 0 0 0 0 0 0 127 0" result="hardAlpha"/>
<feOffset dy="50"/>
<feGaussianBlur stdDeviation="25"/>
<feComposite in2="hardAlpha" operator="out"/>
<feColorMatrix type="matrix" values="0 0 0 0 0.9 0 0 0 0 0.143312 0 0 0 0 0 0 0 0 0.22 0"/>
<feBlend mode="normal" in2="BackgroundImageFix" result="effect1_dropShadow_306_3132"/>
<feBlend mode="normal" in="SourceGraphic" in2="effect1_dropShadow_306_3132" result="shape"/>
</filter>
</defs>
</svg>
