<svg width="147" height="203" viewBox="0 0 147 203" fill="none" xmlns="http://www.w3.org/2000/svg">
<g filter="url(#filter0_d_573_6629)">
<path d="M31.4805 42C31.4805 38.134 34.6145 35 38.4805 35H89.4852C93.3512 35 96.4852 38.134 96.4852 42V90.5606C96.4852 93.1097 95.0996 95.4572 92.8679 96.6891L66.2437 111.385C64.0654 112.587 61.4125 112.543 59.2756 111.268L34.8951 96.7288C32.7776 95.4659 31.4805 93.1822 31.4805 90.7167V42Z" fill="#A8240B" fill-opacity="0.47" shape-rendering="crispEdges"/>
</g>
<g filter="url(#filter1_d_573_6629)">
<path d="M39.7789 50.3496C39.7789 46.4836 42.9129 43.3496 46.7789 43.3496H81.1862C85.0522 43.3496 88.1862 46.4836 88.1862 50.3496V84.983C88.1862 87.5023 86.8325 89.8272 84.6416 91.0707L66.6397 101.288C64.423 102.547 61.6977 102.5 59.5249 101.168L43.1194 91.1074C41.0439 89.8346 39.7789 87.5748 39.7789 85.1401V50.3496Z" fill="#A8240B"/>
</g>
<path d="M57.9373 77.9587C57.9373 78.6387 57.6493 79.2267 57.0733 79.7227C56.8973 79.8747 56.7053 80.0267 56.4973 80.1787L53.9173 82.0387H57.9373V83.7188H51.4573V81.4387L55.7773 78.3187V77.7188C55.7773 77.2387 55.5373 76.9987 55.0573 76.9987H51.6973V75.3187H55.5373C56.3773 75.3187 56.9853 75.5107 57.3613 75.8947C57.7453 76.2707 57.9373 76.8787 57.9373 77.7188V77.9587ZM62.4949 82.0387H58.0549V80.3587L60.9349 75.3187H63.3349L60.4549 80.3587H62.4949V78.5587H64.6549V80.3587H65.4949V82.0387H64.6549V83.7188H62.4949V82.0387ZM65.6196 83.7188L69.2196 75.3187H71.2596L67.7796 83.7188H65.6196ZM71.3763 75.3187H77.8563V76.9987L75.0963 83.7188H72.6963L75.5763 76.9987H71.3763V75.3187Z" fill="white"/>
<path d="M63.5061 52.3582C63.0512 52.443 62.5168 52.6261 61.6957 52.9076L61.2656 53.0539C59.0087 53.827 57.8806 54.2128 57.5977 54.6166C57.32 55.0114 57.314 56.1687 57.314 58.4655L63.5061 56.4014V52.3582ZM63.5061 57.5873L57.314 59.6513V59.8022C57.314 64.0338 60.4956 66.0874 62.4921 66.9595C62.8748 67.1269 63.1225 67.235 63.5061 67.2837V57.5873ZM64.6319 67.2845V57.5873L70.824 59.6513V59.8022C70.824 64.0338 67.6424 66.0874 65.6459 66.9595C65.2631 67.1269 65.0154 67.2357 64.6319 67.2845ZM64.6319 56.4014V52.3574C65.0867 52.4422 65.6211 52.6254 66.4422 52.9068L66.8723 53.0539C69.1292 53.8263 70.2573 54.212 70.5403 54.6158C70.818 55.0106 70.824 56.168 70.824 58.464L64.6319 56.3999V56.4014Z" fill="white"/>
<defs>
<filter id="filter0_d_573_6629" x="-18.5195" y="0" width="165.005" height="177.257" filterUnits="userSpaceOnUse" color-interpolation-filters="sRGB">
<feFlood flood-opacity="0" result="BackgroundImageFix"/>
<feColorMatrix in="SourceAlpha" type="matrix" values="0 0 0 0 0 0 0 0 0 0 0 0 0 0 0 0 0 0 127 0" result="hardAlpha"/>
<feOffset dy="15"/>
<feGaussianBlur stdDeviation="25"/>
<feComposite in2="hardAlpha" operator="out"/>
<feColorMatrix type="matrix" values="0 0 0 0 0.854167 0 0 0 0 0.136014 0 0 0 0 0 0 0 0 0.32 0"/>
<feBlend mode="normal" in2="BackgroundImageFix" result="effect1_dropShadow_573_6629"/>
<feBlend mode="normal" in="SourceGraphic" in2="effect1_dropShadow_573_6629" result="shape"/>
</filter>
<filter id="filter1_d_573_6629" x="-10.2212" y="43.3496" width="148.407" height="158.851" filterUnits="userSpaceOnUse" color-interpolation-filters="sRGB">
<feFlood flood-opacity="0" result="BackgroundImageFix"/>
<feColorMatrix in="SourceAlpha" type="matrix" values="0 0 0 0 0 0 0 0 0 0 0 0 0 0 0 0 0 0 127 0" result="hardAlpha"/>
<feOffset dy="50"/>
<feGaussianBlur stdDeviation="25"/>
<feComposite in2="hardAlpha" operator="out"/>
<feColorMatrix type="matrix" values="0 0 0 0 0.9 0 0 0 0 0.143312 0 0 0 0 0 0 0 0 0.22 0"/>
<feBlend mode="normal" in2="BackgroundImageFix" result="effect1_dropShadow_573_6629"/>
<feBlend mode="normal" in="SourceGraphic" in2="effect1_dropShadow_573_6629" result="shape"/>
</filter>
</defs>
</svg>
