<svg width="21" height="25" viewBox="0 0 21 25" fill="none" xmlns="http://www.w3.org/2000/svg">
<path d="M12.2894 22.0886C12.4559 22.0886 12.5798 21.8821 12.5798 20.7488C12.5798 20.4064 12.7158 20.0781 12.9579 19.836C13.2 19.594 13.5283 19.458 13.8706 19.458C14.213 19.458 14.5413 19.594 14.7834 19.836C15.0254 20.0781 15.1614 20.4064 15.1614 20.7488C15.1614 23.1239 14.2321 24.6703 12.2894 24.6703C10.5532 24.6703 9.43153 23.5718 9.21855 21.7788L9.20951 21.6265V13.2362C9.20951 12.8939 9.34551 12.5656 9.58758 12.3235C9.82965 12.0814 10.158 11.9454 10.5003 11.9454C10.8427 11.9454 11.171 12.0814 11.4131 12.3235C11.6551 12.5656 11.7911 12.8939 11.7911 13.2362V21.5465C11.8544 22.0241 11.9357 22.0886 12.2894 22.0886ZM9.20951 1.61894C9.20951 1.27659 9.34551 0.948269 9.58758 0.706195C9.82965 0.464121 10.158 0.328125 10.5003 0.328125C10.8427 0.328125 11.171 0.464121 11.4131 0.706195C11.6551 0.948269 11.7911 1.27659 11.7911 1.61894V3.55515C11.7911 3.8975 11.6551 4.22582 11.4131 4.4679C11.171 4.70997 10.8427 4.84597 10.5003 4.84597C10.158 4.84597 9.82965 4.70997 9.58758 4.4679C9.34551 4.22582 9.20951 3.8975 9.20951 3.55515V1.61894Z" fill="white"/>
<path fill-rule="evenodd" clip-rule="evenodd" d="M4.90853 14.185L5.02212 14.0275C5.17259 13.8186 5.33193 13.6161 5.49972 13.4208L5.78499 13.6441C6.71308 14.3799 7.23844 14.6574 8.13039 14.509C8.65188 14.4225 9.06623 14.2082 9.60192 13.8352C9.67678 13.7835 9.74003 13.7371 9.86782 13.6454C10.308 13.3279 10.4797 13.2362 10.521 13.2362C10.521 13.2362 10.6888 13.3253 11.1225 13.6403L11.2309 13.719C11.8892 14.1953 12.2997 14.4225 12.8883 14.5129C13.7829 14.6484 14.2863 14.3618 15.226 13.5835C15.3473 13.4828 15.4351 13.4105 15.5022 13.3576C15.5074 13.364 15.5138 13.3705 15.519 13.3795C15.6197 13.5047 15.7772 13.7022 15.9656 13.9733L16.0224 14.0533L16.3038 14.4535C16.4458 14.6536 16.5633 14.8097 16.682 14.9504C17.139 15.4952 17.5714 15.8153 18.24 15.8179C19.7993 15.8243 20.8268 14.7697 20.8268 13.2362C20.8268 7.4405 16.4045 2.90975 10.6475 2.90975C4.84528 2.90975 0.173828 7.48439 0.173828 13.2362C0.173828 14.7736 1.21551 15.7727 2.71673 15.8179C3.39828 15.8372 3.84231 15.521 4.30572 14.9814C4.42447 14.8433 4.54193 14.6923 4.68521 14.4961L4.90853 14.185ZM2.77094 12.7354C3.03039 8.65902 6.43039 5.49137 10.6475 5.49137C14.7871 5.49137 17.9741 8.58287 18.2284 12.7031L18.0774 12.485C17.2952 11.3749 16.7969 10.8586 15.9217 10.6804C15.3667 10.5668 14.8684 10.7037 14.3857 10.9928C14.1314 11.1438 13.9907 11.2536 13.5789 11.5956C13.3788 11.7608 13.2614 11.8538 13.171 11.9119C13.0242 11.8246 12.8821 11.7298 12.745 11.6279L12.6418 11.553C11.7201 10.8831 11.2684 10.6417 10.4797 10.6546C9.70518 10.6675 9.24436 10.9128 8.35757 11.5517L8.12394 11.7182C7.97679 11.8215 7.87094 11.8861 7.80123 11.9235C7.65771 11.8306 7.51979 11.7293 7.38818 11.6201C6.96866 11.2897 6.837 11.1916 6.584 11.0483C6.1064 10.7772 5.61073 10.652 5.066 10.7682C4.20503 10.9528 3.68742 11.4678 2.931 12.5134L2.79934 12.6967L2.77094 12.7354Z" fill="white"/>
</svg>
