<svg width="19" height="21" viewBox="0 0 19 21" fill="none" xmlns="http://www.w3.org/2000/svg">
<path d="M1.5 7.96143V17.9614C1.5 18.4919 1.71071 19.0006 2.08579 19.3756C2.46086 19.7507 2.96957 19.9614 3.5 19.9614H15.5C16.0304 19.9614 16.5391 19.7507 16.9142 19.3756C17.2893 19.0006 17.5 18.4919 17.5 17.9614V7.96143M1.5 7.96143V5.96143C1.5 5.43099 1.71071 4.92228 2.08579 4.54721C2.46086 4.17214 2.96957 3.96143 3.5 3.96143H5.5M1.5 7.96143H17.5M17.5 7.96143V5.96143C17.5 5.43099 17.2893 4.92228 16.9142 4.54721C16.5391 4.17214 16.0304 3.96143 15.5 3.96143H13.5M5.5 3.96143H13.5M5.5 3.96143V1.96143M13.5 3.96143V1.96143" stroke="#FE8000" stroke-width="2" stroke-linecap="round" stroke-linejoin="round"/>
</svg>
