<svg width="28" height="17" viewBox="0 0 28 17" fill="none" xmlns="http://www.w3.org/2000/svg">
<path d="M22.9209 13.5H25.4209C26.1709 13.5 26.6709 13 26.6709 12.25V8.5C26.6709 7.375 25.7959 6.375 24.7959 6.125C22.5459 5.5 19.1709 4.75 19.1709 4.75C19.1709 4.75 17.5459 3 16.4209 1.875C15.7959 1.375 15.0459 1 14.1709 1H5.4209C4.6709 1 4.0459 1.5 3.6709 2.125L1.9209 5.75C1.75537 6.23278 1.6709 6.73963 1.6709 7.25V12.25C1.6709 13 2.1709 13.5 2.9209 13.5H5.4209M22.9209 13.5C22.9209 14.8807 21.8016 16 20.4209 16C19.0402 16 17.9209 14.8807 17.9209 13.5M22.9209 13.5C22.9209 12.1193 21.8016 11 20.4209 11C19.0402 11 17.9209 12.1193 17.9209 13.5M5.4209 13.5C5.4209 14.8807 6.54019 16 7.9209 16C9.30161 16 10.4209 14.8807 10.4209 13.5M5.4209 13.5C5.4209 12.1193 6.54019 11 7.9209 11C9.30161 11 10.4209 12.1193 10.4209 13.5M10.4209 13.5H17.9209" stroke="#FE8000" stroke-width="2" stroke-linecap="round" stroke-linejoin="round"/>
</svg>
