<svg width="21" height="24" viewBox="0 0 21 24" fill="none" xmlns="http://www.w3.org/2000/svg">
<path d="M18.2985 6.56988L19.7531 4.9171L18.0909 3.4708L16.6363 5.01984C15.2189 3.97412 13.5588 3.30131 11.8101 3.06384L11.7549 3.05785V2.12823H14.3511V0.0625H6.97693V2.12823H9.57309V3.16059C4.18716 3.64934 0 8.11793 0 13.56C0 19.3263 4.70077 24.0004 10.5 24.0004C16.2992 24.0004 21 19.3263 21 13.56C21 10.8669 19.9748 8.41118 18.2905 6.55991L18.2985 6.56988ZM10.6124 21.3382C9.56215 21.3382 8.52224 21.1325 7.55198 20.7329C6.58173 20.3333 5.70013 19.7476 4.95753 19.0092C4.21492 18.2708 3.62586 17.3942 3.22396 16.4295C2.82207 15.4647 2.61522 14.4307 2.61522 13.3865C2.61522 12.3422 2.82207 11.3082 3.22396 10.3435C3.62586 9.37875 4.21492 8.50216 4.95753 7.76378C5.70013 7.0254 6.58173 6.43968 7.55198 6.04007C8.52224 5.64046 9.56215 5.43478 10.6124 5.43478C12.7567 5.44925 14.8091 6.30281 16.3253 7.81071C17.0828 8.54999 17.6842 9.43217 18.0943 10.4055C18.5045 11.3789 18.7151 12.4239 18.7138 13.4792V13.4912C18.5403 17.8271 14.9911 21.2823 10.6184 21.3392L10.6124 21.3382Z" fill="white"/>
<path d="M9.57409 7.293H11.7549V15.2447H9.57409V7.293Z" fill="white"/>
</svg>
