<svg width="25" height="23" viewBox="0 0 25 23" fill="none" xmlns="http://www.w3.org/2000/svg">
<path d="M9.4991 21.5914C7.76243 21.0729 6.1896 20.1136 4.9337 18.8068C5.33778 18.3276 5.58967 17.7387 5.65714 17.1154C5.72462 16.4922 5.6046 15.863 5.31246 15.3084C5.02031 14.7537 4.56932 14.2989 4.0172 14.002C3.46508 13.7051 2.83694 13.5797 2.21315 13.6419C2.07104 12.9458 1.99963 12.2371 2 11.5267C2 10.4294 2.168 9.37102 2.4809 8.37667H2.525C3.06037 8.37685 3.58696 8.24056 4.05503 7.98069C4.5231 7.72082 4.91721 7.34594 5.20015 6.89144C5.4831 6.43695 5.64553 5.91784 5.67212 5.38313C5.69871 4.84841 5.58858 4.31575 5.35213 3.83542C6.58304 2.68926 8.07165 1.85608 9.6923 1.40625C9.95605 1.92411 10.3579 2.35891 10.8534 2.66255C11.349 2.96619 11.9188 3.12682 12.5 3.12667C13.0812 3.12682 13.651 2.96619 14.1466 2.66255C14.6421 2.35891 15.0439 1.92411 15.3077 1.40625C16.9283 1.85608 18.417 2.68926 19.6479 3.83542C19.4097 4.31911 19.2996 4.85584 19.3283 5.39423C19.3569 5.93262 19.5232 6.45465 19.8113 6.91036C20.0995 7.36607 20.4997 7.7402 20.9738 7.99693C21.4479 8.25367 21.98 8.38442 22.5191 8.37667C22.8388 9.39607 23.001 10.4583 23 11.5267C23 12.2512 22.9265 12.9589 22.7868 13.6424C22.1631 13.5803 21.5349 13.7057 20.9828 14.0025C20.4307 14.2994 19.9797 14.7543 19.6875 15.3089C19.3954 15.8635 19.2754 16.4927 19.3429 17.116C19.4103 17.7392 19.6622 18.3281 20.0663 18.8074C18.8103 20.1139 17.2375 21.0731 15.5009 21.5914C15.297 20.9558 14.8965 20.4014 14.3571 20.008C13.8178 19.6146 13.1675 19.4027 12.5 19.4027C11.8325 19.4027 11.1822 19.6146 10.6428 20.008C10.1035 20.4014 9.70303 20.9558 9.4991 21.5914Z" stroke="white" stroke-width="2.7" stroke-linejoin="round"/>
<path d="M12.5 15.2017C12.9826 15.2017 13.4605 15.1066 13.9064 14.9219C14.3522 14.7372 14.7574 14.4665 15.0986 14.1253C15.4399 13.784 15.7106 13.3789 15.8953 12.933C16.0799 12.4872 16.175 12.0093 16.175 11.5267C16.175 11.0441 16.0799 10.5662 15.8953 10.1203C15.7106 9.67444 15.4399 9.26931 15.0986 8.92806C14.7574 8.5868 14.3522 8.3161 13.9064 8.13142C13.4605 7.94673 12.9826 7.85167 12.5 7.85167C11.5253 7.85167 10.5906 8.23886 9.90138 8.92806C9.21219 9.61725 8.825 10.552 8.825 11.5267C8.825 12.5013 9.21219 13.4361 9.90138 14.1253C10.5906 14.8145 11.5253 15.2017 12.5 15.2017Z" stroke="white" stroke-width="2.7" stroke-linejoin="round"/>
</svg>
