<svg width="20" height="25" viewBox="0 0 20 25" fill="none" xmlns="http://www.w3.org/2000/svg">
<path d="M19 10.8984C19 17.8984 10 23.8984 10 23.8984C10 23.8984 1 17.8984 1 10.8984C1 8.51149 1.94821 6.2223 3.63604 4.53448C5.32387 2.84665 7.61305 1.89844 10 1.89844C12.3869 1.89844 14.6761 2.84665 16.364 4.53448C18.0518 6.2223 19 8.51149 19 10.8984Z" stroke="#FE8000" stroke-width="2" stroke-linecap="round" stroke-linejoin="round"/>
<path d="M10 13.8984C11.6569 13.8984 13 12.5553 13 10.8984C13 9.24158 11.6569 7.89844 10 7.89844C8.34315 7.89844 7 9.24158 7 10.8984C7 12.5553 8.34315 13.8984 10 13.8984Z" stroke="#FE8000" stroke-width="2" stroke-linecap="round" stroke-linejoin="round"/>
</svg>
