<svg width="1900" height="1205" viewBox="0 0 1900 1205" fill="none" xmlns="http://www.w3.org/2000/svg">
<rect width="1941.36" height="930" fill="#232323"/>
<circle cx="307.051" cy="307.051" r="307.051" transform="matrix(-1 0 0 1 1587.99 30.3911)" fill="#151515"/>
<circle cx="266.159" cy="266.159" r="266.159" transform="matrix(-1 0 0 1 1525.07 49.2529)" fill="#2D2D2D"/>
<circle cx="215.822" cy="215.822" r="215.822" transform="matrix(-1 0 0 1 1436.98 61.8374)" fill="#151515"/>
<circle cx="182.473" cy="182.473" r="182.473" transform="matrix(-1 0 0 1 1374.06 65.6123)" fill="#2D2D2D"/>
<circle cx="141.473" cy="141.473" r="141.473" transform="matrix(-1 0 0 1 1307.36 80.9155)" fill="#151515"/>
<circle cx="91.2367" cy="91.2367" r="91.2367" transform="matrix(-1 0 0 1 1220.53 97.0732)" fill="#2D2D2D"/>
<g filter="url(#filter0_f_334_3128)">
<ellipse cx="782.5" cy="811.323" rx="262.5" ry="192.722" fill="#007065" fill-opacity="0.24"/>
</g>
<g filter="url(#filter1_f_334_3128)">
<circle cx="1190.34" cy="127.5" r="252.5" fill="#EF7F1A"/>
</g>
<g filter="url(#filter2_f_334_3128)">
<ellipse cx="1402.5" cy="277.5" rx="247.5" ry="139.75" fill="#C83D21" fill-opacity="0.74"/>
</g>
<defs>
<filter id="filter0_f_334_3128" x="320" y="418.602" width="925" height="785.443" filterUnits="userSpaceOnUse" color-interpolation-filters="sRGB">
<feFlood flood-opacity="0" result="BackgroundImageFix"/>
<feBlend mode="normal" in="SourceGraphic" in2="BackgroundImageFix" result="shape"/>
<feGaussianBlur stdDeviation="100" result="effect1_foregroundBlur_334_3128"/>
</filter>
<filter id="filter1_f_334_3128" x="537.836" y="-525" width="1305" height="1305" filterUnits="userSpaceOnUse" color-interpolation-filters="sRGB">
<feFlood flood-opacity="0" result="BackgroundImageFix"/>
<feBlend mode="normal" in="SourceGraphic" in2="BackgroundImageFix" result="shape"/>
<feGaussianBlur stdDeviation="200" result="effect1_foregroundBlur_334_3128"/>
</filter>
<filter id="filter2_f_334_3128" x="955" y="-62.25" width="895" height="679.5" filterUnits="userSpaceOnUse" color-interpolation-filters="sRGB">
<feFlood flood-opacity="0" result="BackgroundImageFix"/>
<feBlend mode="normal" in="SourceGraphic" in2="BackgroundImageFix" result="shape"/>
<feGaussianBlur stdDeviation="100" result="effect1_foregroundBlur_334_3128"/>
</filter>
</defs>
</svg>
