<svg width="16" height="15" viewBox="0 0 16 15" fill="none" xmlns="http://www.w3.org/2000/svg">
<path d="M5.28781 7.456C5.28781 6.16254 6.39436 5.11371 7.75974 5.11371C9.12511 5.11371 10.2323 6.16254 10.2323 7.456C10.2323 8.74946 9.12511 9.7983 7.75974 9.7983C6.39436 9.7983 5.28781 8.74946 5.28781 7.456ZM3.95122 7.456C3.95122 9.44867 5.65629 11.0639 7.75974 11.0639C9.86319 11.0639 11.5683 9.44867 11.5683 7.456C11.5683 5.46334 9.86319 3.84807 7.75974 3.84807C5.65629 3.84807 3.95122 5.46334 3.95122 7.456ZM10.829 3.70502C10.8289 3.87178 10.8811 4.03482 10.9788 4.17351C11.0765 4.3122 11.2155 4.42032 11.3781 4.4842C11.5407 4.54808 11.7197 4.56485 11.8923 4.53238C12.065 4.49991 12.2236 4.41967 12.3481 4.3018C12.4727 4.18393 12.5575 4.03372 12.5919 3.87018C12.6263 3.70663 12.6088 3.5371 12.5415 3.383C12.4742 3.22891 12.3601 3.09719 12.2138 3.00448C12.0675 2.91178 11.8954 2.86226 11.7194 2.8622H11.719C11.4831 2.8623 11.2568 2.95112 11.0899 3.10915C10.923 3.26718 10.8292 3.48149 10.829 3.70502ZM4.76328 13.1753C4.04016 13.1441 3.64712 13.03 3.38592 12.9335C3.03964 12.8058 2.79257 12.6537 2.53279 12.408C2.27302 12.1622 2.11222 11.9284 1.97801 11.6003C1.87619 11.353 1.75573 10.9806 1.72286 10.2955C1.68691 9.5549 1.67973 9.33242 1.67973 7.45606C1.67973 5.5797 1.6875 5.35783 1.72286 4.61658C1.75579 3.93155 1.87714 3.55983 1.97801 3.31177C2.11282 2.98372 2.27338 2.74966 2.53279 2.50357C2.79221 2.25749 3.03905 2.10515 3.38592 1.97801C3.647 1.88155 4.04016 1.76744 4.76328 1.7363C5.54509 1.70224 5.77994 1.69544 7.75974 1.69544C9.73953 1.69544 9.97462 1.7028 10.7571 1.7363C11.4802 1.7675 11.8726 1.88245 12.1344 1.97801C12.4807 2.10515 12.7278 2.25782 12.9876 2.50357C13.2473 2.74933 13.4075 2.98372 13.5424 3.31177C13.6442 3.5591 13.7646 3.93155 13.7975 4.61658C13.8335 5.35783 13.8406 5.5797 13.8406 7.45606C13.8406 9.33242 13.8335 9.55429 13.7975 10.2955C13.7646 10.9806 13.6435 11.3529 13.5424 11.6003C13.4075 11.9284 13.247 12.1625 12.9876 12.408C12.7282 12.6535 12.4807 12.8058 12.1344 12.9335C11.8734 13.03 11.4802 13.1441 10.7571 13.1753C9.97527 13.2093 9.74042 13.2161 7.75974 13.2161C5.77905 13.2161 5.54485 13.2093 4.76328 13.1753ZM4.70187 0.472239C3.91229 0.506302 3.37275 0.624907 2.90157 0.798597C2.41359 0.977965 2.00049 1.2186 1.5877 1.60904C1.1749 1.99948 0.921534 2.39143 0.732194 2.85371C0.548846 3.30036 0.423648 3.8112 0.387691 4.55919C0.35114 5.30837 0.342773 5.54788 0.342773 7.456C0.342773 9.36413 0.35114 9.60364 0.387691 10.3528C0.423648 11.1009 0.548846 11.6116 0.732194 12.0583C0.921534 12.5203 1.17496 12.9127 1.5877 13.303C2.00043 13.6932 2.41359 13.9335 2.90157 14.1134C3.37364 14.2871 3.91229 14.4057 4.70187 14.4398C5.49311 14.4738 5.74553 14.4823 7.75974 14.4823C9.77395 14.4823 10.0268 14.4744 10.8176 14.4398C11.6072 14.4057 12.1464 14.2871 12.6179 14.1134C13.1056 13.9335 13.519 13.6934 13.9318 13.303C14.3446 12.9125 14.5974 12.5203 14.7873 12.0583C14.9706 11.6116 15.0964 11.1008 15.1318 10.3528C15.1677 9.60308 15.1761 9.36413 15.1761 7.456C15.1761 5.54788 15.1677 5.30837 15.1318 4.55919C15.0958 3.81114 14.9706 3.30008 14.7873 2.85371C14.5974 2.39172 14.3439 2.0001 13.9318 1.60904C13.5196 1.21798 13.1056 0.977965 12.6185 0.798597C12.1464 0.624907 11.6072 0.50574 10.8182 0.472239C10.0274 0.438175 9.77454 0.429688 7.76033 0.429688C5.74612 0.429688 5.49311 0.437613 4.70187 0.472239Z" fill="white"/>
</svg>
