<svg width="26" height="25" viewBox="0 0 26 25" fill="none" xmlns="http://www.w3.org/2000/svg">
<path d="M3.77 18.544C2.535 17.244 1.5977 15.8031 0.958102 14.2215C0.318502 12.6398 -0.000864907 11.004 1.75913e-06 9.31398C1.75913e-06 7.62398 0.319802 5.98815 0.959401 4.40648C1.599 2.82482 2.53587 1.38398 3.77 0.0839844L5.33 1.64398C4.29 2.68398 3.51 3.88128 2.99 5.23588C2.47 6.59048 2.21 7.94985 2.21 9.31398C2.21 10.679 2.47 12.0388 2.99 13.3934C3.51 14.748 4.29 15.9448 5.33 16.984L3.77 18.544ZM6.89 15.424C6.045 14.579 5.40063 13.6256 4.9569 12.564C4.51317 11.5023 4.29087 10.419 4.29 9.31398C4.29 8.20898 4.5123 7.12565 4.9569 6.06398C5.4015 5.00232 6.04587 4.04898 6.89 3.20398L8.45 4.76398C7.8 5.34898 7.3125 6.04232 6.9875 6.84398C6.6625 7.64565 6.5 8.46898 6.5 9.31398C6.5 10.094 6.6625 10.8848 6.9875 11.6865C7.3125 12.4881 7.8 13.214 8.45 13.864L6.89 15.424ZM6.5 24.914L10.8875 11.7515C10.5408 11.4481 10.2644 11.0906 10.0581 10.679C9.85183 10.2673 9.74913 9.81231 9.75 9.31398C9.75 8.40398 10.0642 7.63482 10.6925 7.00648C11.3208 6.37815 12.09 6.06398 13 6.06398C13.91 6.06398 14.6792 6.37815 15.3075 7.00648C15.9358 7.63482 16.25 8.40398 16.25 9.31398C16.25 9.81231 16.1469 10.2673 15.9406 10.679C15.7343 11.0906 15.4583 11.4481 15.1125 11.7515L19.5 24.914H16.9L16.055 22.314H9.9775L9.1 24.914H6.5ZM10.8225 19.714H15.1775L13 13.214L10.8225 19.714ZM19.11 15.424L17.55 13.864C18.2 13.279 18.6875 12.5856 19.0125 11.784C19.3375 10.9823 19.5 10.159 19.5 9.31398C19.5 8.53398 19.3375 7.74315 19.0125 6.94148C18.6875 6.13982 18.2 5.41398 17.55 4.76398L19.11 3.20398C19.955 4.04898 20.5833 5.00232 20.995 6.06398C21.4067 7.12565 21.645 8.20898 21.71 9.31398C21.71 10.419 21.4881 11.5023 21.0444 12.564C20.6007 13.6256 19.9559 14.579 19.11 15.424ZM22.23 18.544L20.67 16.984C21.71 15.944 22.49 14.7471 23.01 13.3934C23.53 12.0396 23.79 10.6798 23.79 9.31398C23.79 7.94898 23.53 6.58918 23.01 5.23458C22.49 3.87998 21.71 2.68312 20.67 1.64398L22.23 0.0839844C23.465 1.38398 24.4023 2.82482 25.0419 4.40648C25.6815 5.98815 26.0009 7.62398 26 9.31398C26 11.004 25.6967 12.6398 25.09 14.2215C24.4833 15.8031 23.53 17.244 22.23 18.544Z" fill="white"/>
</svg>
