<svg width="19" height="16" viewBox="0 0 19 16" fill="none" xmlns="http://www.w3.org/2000/svg">
<path d="M2.99771 1.48242H15.7977C16.6777 1.48242 17.3977 2.20242 17.3977 3.08242V12.6824C17.3977 13.5624 16.6777 14.2824 15.7977 14.2824H2.99771C2.11771 14.2824 1.39771 13.5624 1.39771 12.6824V3.08242C1.39771 2.20242 2.11771 1.48242 2.99771 1.48242Z" fill="#FE8000"/>
<path d="M17.3977 3.08242L9.39771 8.68242L1.39771 3.08242" fill="#FE8000"/>
<path d="M17.3977 3.08242C17.3977 2.20242 16.6777 1.48242 15.7977 1.48242H2.99771C2.11771 1.48242 1.39771 2.20242 1.39771 3.08242M17.3977 3.08242V12.6824C17.3977 13.5624 16.6777 14.2824 15.7977 14.2824H2.99771C2.11771 14.2824 1.39771 13.5624 1.39771 12.6824V3.08242M17.3977 3.08242L9.39771 8.68242L1.39771 3.08242" stroke="#6A4728" stroke-width="2" stroke-linecap="round" stroke-linejoin="round"/>
</svg>
