<svg width="19" height="25" viewBox="0 0 19 25" fill="none" xmlns="http://www.w3.org/2000/svg">
<path d="M16.7344 21.7433H12.7886C13.309 21.2409 13.8687 20.6672 14.4294 20.0221C17.2518 16.7766 18.7439 13.3403 18.7439 10.0878C18.7439 7.63611 17.77 5.28486 16.0364 3.55126C14.3028 1.81767 11.9516 0.84375 9.49989 0.84375C7.04822 0.84375 4.69697 1.81767 2.96337 3.55126C1.22978 5.28486 0.255859 7.63611 0.255859 10.0878C0.255859 15.1117 3.68419 19.3258 6.20218 21.7433H2.26543C1.94565 21.7433 1.63896 21.8703 1.41284 22.0965C1.18672 22.3226 1.05969 22.6293 1.05969 22.949C1.05969 23.2688 1.18672 23.5755 1.41284 23.8016C1.63896 24.0278 1.94565 24.1548 2.26543 24.1548H16.7344C17.0541 24.1548 17.3608 24.0278 17.5869 23.8016C17.8131 23.5755 17.9401 23.2688 17.9401 22.949C17.9401 22.6293 17.8131 22.3226 17.5869 22.0965C17.3608 21.8703 17.0541 21.7433 16.7344 21.7433ZM2.66735 10.0878C2.66735 8.27568 3.3872 6.53779 4.66855 5.25644C5.9499 3.97509 7.68779 3.25524 9.49989 3.25524C11.312 3.25524 13.0499 3.97509 14.3312 5.25644C15.6126 6.53779 16.3324 8.27568 16.3324 10.0878C16.3324 13.4347 14.3229 16.4551 12.6449 18.3984C11.6868 19.4988 10.6345 20.5135 9.49989 21.4308C8.36527 20.5135 7.31294 19.4988 6.35491 18.3984C4.67692 16.4551 2.66735 13.4347 2.66735 10.0878ZM9.49989 14.5088C10.3743 14.5088 11.2291 14.2496 11.9561 13.7638C12.6831 13.278 13.2498 12.5875 13.5844 11.7796C13.919 10.9718 14.0066 10.0829 13.836 9.22528C13.6654 8.36768 13.2443 7.57992 12.6261 6.96162C12.0078 6.34333 11.22 5.92226 10.3624 5.75167C9.5048 5.58109 8.61587 5.66864 7.80803 6.00326C7.00018 6.33788 6.30971 6.90453 5.82392 7.63157C5.33812 8.35861 5.07883 9.21338 5.07883 10.0878C5.08016 11.2599 5.54638 12.3837 6.3752 13.2125C7.20402 14.0413 8.32776 14.5075 9.49989 14.5088ZM9.49989 8.07821C9.89735 8.07821 10.2859 8.19607 10.6164 8.41688C10.9468 8.6377 11.2044 8.95155 11.3565 9.31875C11.5086 9.68595 11.5484 10.09 11.4709 10.4798C11.3933 10.8696 11.2019 11.2277 10.9209 11.5088C10.6398 11.7898 10.2818 11.9812 9.89194 12.0587C9.50212 12.1363 9.09806 12.0965 8.73086 11.9444C8.36366 11.7923 8.04981 11.5347 7.82899 11.2042C7.60818 10.8738 7.49032 10.4852 7.49032 10.0878C7.49032 9.55481 7.70204 9.04367 8.07891 8.6668C8.45578 8.28993 8.96692 8.07821 9.49989 8.07821Z" fill="white"/>
</svg>
