<svg width="86" height="50" viewBox="0 0 86 50" fill="none" xmlns="http://www.w3.org/2000/svg">
<path d="M42.8426 0.171875C34.5727 0.171875 27.8439 6.90068 27.8439 15.1612C27.7895 27.2446 42.2727 37.2637 42.8426 37.6687C42.8426 37.6687 57.8957 27.2446 57.8414 15.1706C57.8414 6.90068 51.1126 0.171875 42.8426 0.171875ZM42.8426 22.67C38.6992 22.67 35.3433 19.314 35.3433 15.1706C35.3433 11.0272 38.6992 7.67124 42.8426 7.67124C46.986 7.67124 50.342 11.0272 50.342 15.1706C50.342 19.314 46.986 22.67 42.8426 22.67Z" fill="#FE8000"/>
<ellipse cx="42.8399" cy="44.7055" rx="42.1993" ry="4.58688" fill="#FE8000" fill-opacity="0.34"/>
<ellipse cx="42.8295" cy="44.7052" rx="15.8451" ry="1.72229" fill="#FE8000" fill-opacity="0.46"/>
</svg>
