<svg width="11" height="18" viewBox="0 0 11 18" fill="none" xmlns="http://www.w3.org/2000/svg">
<path d="M5.4323 0.958008C4.30737 0.959096 3.22883 1.4065 2.43345 2.20201C1.63807 2.99752 1.19084 4.07613 1.18993 5.20106C1.19138 6.32575 1.63895 7.40393 2.43442 8.19902C3.22989 8.9941 4.30829 9.44115 5.43298 9.44205C6.55744 9.44079 7.63548 8.99358 8.43066 8.19853C9.22583 7.40349 9.67321 6.32551 9.67466 5.20106C9.67376 4.07625 9.22662 2.99774 8.43138 2.20225C7.63615 1.40676 6.55779 0.959277 5.43298 0.958008H5.4323ZM5.4323 3.44425C5.89812 3.44461 6.34476 3.62982 6.67415 3.95921C7.00353 4.28859 7.18874 4.73524 7.1891 5.20106C7.18838 5.66659 7.00313 6.11284 6.67395 6.44202C6.34477 6.7712 5.89851 6.95646 5.43298 6.95718C4.96733 6.95664 4.5209 6.77147 4.19157 6.44227C3.86224 6.11307 3.6769 5.66671 3.67617 5.20106C3.67672 4.73535 3.86201 4.28889 4.19137 3.95965C4.52074 3.63041 4.96728 3.4453 5.43298 3.44494L5.4323 3.44425ZM1.87553 9.58794C1.60918 9.59584 1.35242 9.68916 1.14316 9.85413C0.933901 10.0191 0.783224 10.247 0.713371 10.5041C0.643518 10.7613 0.658191 11.0341 0.755224 11.2823C0.852257 11.5304 1.02651 11.7408 1.25226 11.8824C2.01018 12.3588 2.8431 12.7038 3.7159 12.9029L1.34472 15.2748C1.1175 15.5091 0.99156 15.8235 0.994109 16.1499C0.996658 16.4763 1.12749 16.7886 1.35834 17.0193C1.5892 17.2501 1.90156 17.3808 2.22797 17.3832C2.55438 17.3857 2.86864 17.2596 3.1029 17.0323L5.4323 14.7015L7.76443 17.0323C7.87974 17.1476 8.01663 17.2391 8.16729 17.3015C8.31795 17.3639 8.47942 17.396 8.64249 17.396C8.80557 17.396 8.96704 17.3639 9.1177 17.3015C9.26836 17.2391 9.40525 17.1476 9.52056 17.0323C10.0068 16.5467 10.0068 15.7597 9.52056 15.2748L7.14938 12.9036C8.02201 12.7047 8.85473 12.3596 9.61233 11.8831C9.75053 11.7962 9.87027 11.683 9.9647 11.5498C10.0591 11.4166 10.1264 11.2662 10.1627 11.107C10.199 10.9479 10.2036 10.7831 10.1762 10.6222C10.1488 10.4613 10.09 10.3073 10.0031 10.1691C9.91619 10.0309 9.80294 9.91116 9.66978 9.81673C9.53662 9.7223 9.38616 9.65502 9.227 9.61874C9.06784 9.58245 8.9031 9.57787 8.74217 9.60526C8.58124 9.63265 8.42728 9.69146 8.28908 9.77835C7.43264 10.3137 6.44298 10.5976 5.43298 10.5976C4.42298 10.5976 3.43332 10.3137 2.57688 9.77835C2.35908 9.64136 2.11525 9.57972 1.87553 9.58794Z" fill="white"/>
</svg>
