<svg width="29" height="21" viewBox="0 0 29 21" fill="none" xmlns="http://www.w3.org/2000/svg">
<path d="M7.98 1.3125H28.98V6.5625H27.6675V7.875H19.7925C19.4444 7.875 19.1106 8.01328 18.8644 8.25942C18.6183 8.50556 18.48 8.8394 18.48 9.1875V10.5C18.48 11.1962 18.2034 11.8639 17.7112 12.3562C17.2189 12.8484 16.5512 13.125 15.855 13.125H11.4187C10.92 13.125 10.4606 13.4138 10.2375 13.86L7.02187 20.2781C6.79875 20.7244 6.3525 21 5.85375 21H1.4175C1.4175 21 -2.52 21 2.73 13.125C2.73 13.125 6.6675 7.875 1.4175 7.875V1.3125H2.73L3.38625 0H7.32375L7.98 1.3125ZM17.1675 10.5V9.1875C17.1675 8.8394 17.0292 8.50556 16.7831 8.25942C16.5369 8.01328 16.2031 7.875 15.855 7.875H14.5425C14.5425 7.875 13.23 9.1875 14.5425 10.5C13.8463 10.5 13.1786 10.2234 12.6863 9.73115C12.1941 9.23887 11.9175 8.57119 11.9175 7.875C11.5694 7.875 11.2356 8.01328 10.9894 8.25942C10.7433 8.50556 10.605 8.8394 10.605 9.1875V10.5C10.605 10.8481 10.7433 11.1819 10.9894 11.4281C11.2356 11.6742 11.5694 11.8125 11.9175 11.8125H15.855C16.2031 11.8125 16.5369 11.6742 16.7831 11.4281C17.0292 11.1819 17.1675 10.8481 17.1675 10.5Z" fill="black"/>
</svg>
