<svg width="16" height="13" viewBox="0 0 16 13" fill="none" xmlns="http://www.w3.org/2000/svg">
<path d="M15.2429 1.6949C14.6913 1.93544 14.0987 2.09797 13.4758 2.17143C14.1185 1.79293 14.5994 1.19723 14.8287 0.495458C14.2248 0.848459 13.5639 1.09693 12.8746 1.23008C12.4111 0.743061 11.7972 0.420258 11.1281 0.311786C10.4591 0.203314 9.7724 0.315243 9.17464 0.630194C8.57687 0.945145 8.10149 1.4455 7.8223 2.05357C7.5431 2.66164 7.47572 3.34341 7.63062 3.99303C6.40694 3.93257 5.20986 3.61957 4.11707 3.07437C3.02427 2.52916 2.06018 1.76392 1.28736 0.828312C1.02311 1.27689 0.871168 1.79697 0.871168 2.35086C0.870873 2.84949 0.99565 3.34048 1.23443 3.78027C1.47321 4.22006 1.8186 4.59505 2.23997 4.87197C1.75129 4.85667 1.2734 4.72673 0.846065 4.49296V4.53197C0.846015 5.23131 1.09184 5.90914 1.54182 6.45043C1.9918 6.99172 2.61822 7.36313 3.3148 7.50165C2.86147 7.62239 2.38619 7.64017 1.92485 7.55366C2.12139 8.15541 2.50421 8.68161 3.01974 9.05861C3.53527 9.4356 4.15769 9.64452 4.79987 9.6561C3.70973 10.4983 2.36343 10.9551 0.977528 10.9531C0.732029 10.9531 0.486738 10.939 0.24292 10.9108C1.64969 11.8009 3.28727 12.2733 4.95973 12.2715C10.6212 12.2715 13.7162 7.65703 13.7162 3.65497C13.7162 3.52495 13.7129 3.39363 13.707 3.26361C14.309 2.83517 14.8287 2.30464 15.2416 1.69685L15.2429 1.6949Z" fill="white"/>
</svg>
