<svg width="24" height="21" viewBox="0 0 24 21" fill="none" xmlns="http://www.w3.org/2000/svg">
<path d="M17 19.6133V17.6133C17 16.5524 16.5786 15.535 15.8284 14.7849C15.0783 14.0347 14.0609 13.6133 13 13.6133H5C3.93913 13.6133 2.92172 14.0347 2.17157 14.7849C1.42143 15.535 1 16.5524 1 17.6133V19.6133M23 19.6133V17.6133C22.9993 16.727 22.7044 15.8661 22.1614 15.1656C21.6184 14.4651 20.8581 13.9648 20 13.7433M16 1.74328C16.8604 1.96358 17.623 2.46398 18.1676 3.16559C18.7122 3.8672 19.0078 4.73011 19.0078 5.61828C19.0078 6.50645 18.7122 7.36936 18.1676 8.07097C17.623 8.77258 16.8604 9.27298 16 9.49328M13 5.61328C13 7.82242 11.2091 9.61328 9 9.61328C6.79086 9.61328 5 7.82242 5 5.61328C5 3.40414 6.79086 1.61328 9 1.61328C11.2091 1.61328 13 3.40414 13 5.61328Z" stroke="#FE8000" stroke-width="2" stroke-linecap="round" stroke-linejoin="round"/>
</svg>
