<svg width="16" height="16" viewBox="0 0 16 16" fill="none" xmlns="http://www.w3.org/2000/svg">
<path d="M7.95264 0.822266C12.0009 0.822266 15.2825 4.10383 15.2825 8.15209C15.2825 12.2004 12.0009 15.4819 7.95264 15.4819C6.6573 15.484 5.38475 15.1412 4.26574 14.4887L0.625745 15.4819L1.61674 11.8405C0.963718 10.7211 0.620649 9.44801 0.622813 8.15209C0.622813 4.10383 3.90438 0.822266 7.95264 0.822266ZM5.45464 4.70708L5.30804 4.71294C5.21313 4.71872 5.12038 4.74365 5.03537 4.78624C4.95586 4.83126 4.88327 4.88755 4.81987 4.95336C4.73192 5.03618 4.68207 5.10802 4.62856 5.17765C4.35745 5.53014 4.21148 5.9629 4.2137 6.4076C4.21516 6.76676 4.30898 7.11639 4.45558 7.4433C4.75537 8.10445 5.24867 8.80445 5.89956 9.45314C6.05642 9.60926 6.21034 9.76612 6.376 9.91199C7.18476 10.6241 8.14853 11.1376 9.19065 11.4117L9.60699 11.4754C9.74259 11.4828 9.87819 11.4725 10.0145 11.4659C10.228 11.4549 10.4364 11.3971 10.6251 11.2966C10.7211 11.2471 10.8148 11.1933 10.9058 11.1353C10.9058 11.1353 10.9373 11.1148 10.9975 11.0694C11.0964 10.9961 11.1572 10.944 11.2393 10.8583C11.3002 10.7952 11.353 10.7212 11.3933 10.6369C11.4504 10.5174 11.5076 10.2895 11.5311 10.0996C11.5487 9.9545 11.5435 9.87534 11.5413 9.82623C11.5384 9.7478 11.4732 9.66644 11.4021 9.63199L10.9755 9.44068C10.9755 9.44068 10.3378 9.16288 9.94782 8.9855C9.90702 8.96768 9.86329 8.95749 9.81882 8.95544C9.76867 8.95029 9.71799 8.95594 9.67021 8.97199C9.62242 8.98805 9.57862 9.01415 9.54175 9.04853C9.53808 9.04707 9.48897 9.08885 8.95903 9.73094C8.92861 9.77181 8.88671 9.8027 8.83867 9.81967C8.79064 9.83664 8.73863 9.83892 8.68929 9.82623C8.64154 9.81342 8.59476 9.79726 8.54929 9.77785C8.4584 9.73974 8.42688 9.72508 8.36458 9.69869C7.9439 9.51511 7.5544 9.26707 7.21013 8.96351C7.11777 8.88288 7.03202 8.79492 6.94406 8.70989C6.65569 8.43373 6.40438 8.12131 6.19641 7.78047L6.15317 7.71084C6.12211 7.66405 6.09699 7.61357 6.0784 7.56058C6.05055 7.45283 6.12312 7.36634 6.12312 7.36634C6.12312 7.36634 6.30123 7.17136 6.38406 7.06581C6.46469 6.9632 6.53285 6.86351 6.57683 6.79241C6.66332 6.65315 6.69045 6.51021 6.645 6.39953C6.43977 5.89817 6.2272 5.39901 6.00877 4.90351C5.96553 4.80529 5.83725 4.73493 5.72071 4.721C5.68113 4.7166 5.64155 4.71221 5.60197 4.70927C5.50353 4.70438 5.40489 4.70536 5.30657 4.71221L5.4539 4.70634L5.45464 4.70708Z" fill="white"/>
</svg>
