<svg width="15" height="16" viewBox="0 0 15 16" fill="none" xmlns="http://www.w3.org/2000/svg">
<path d="M7.32984 0.840332C11.3781 0.840332 14.6597 4.1219 14.6597 8.17016C14.6597 12.2184 11.3781 15.5 7.32984 15.5C6.0345 15.5021 4.76195 15.1593 3.64294 14.5068L0.00294224 15.5L0.993935 11.8585C0.340916 10.7392 -0.00215378 9.46607 1.0174e-05 8.17016C1.0174e-05 4.1219 3.28158 0.840332 7.32984 0.840332ZM4.83183 4.72514L4.68524 4.73101C4.59033 4.73679 4.49758 4.76172 4.41257 4.8043C4.33305 4.84933 4.26047 4.90562 4.19707 4.97142C4.10911 5.05425 4.05927 5.12608 4.00576 5.19572C3.73465 5.54821 3.58867 5.98097 3.59089 6.42566C3.59236 6.78482 3.68618 7.13446 3.83278 7.46137C4.13257 8.12252 4.62587 8.82252 5.27675 9.47121C5.43361 9.62733 5.58754 9.78419 5.75319 9.93005C6.56196 10.6421 7.52573 11.1556 8.56785 11.4297L8.98418 11.4935C9.11978 11.5008 9.25539 11.4906 9.39172 11.484C9.60519 11.473 9.81364 11.4152 10.0023 11.3147C10.0983 11.2652 10.192 11.2114 10.283 11.1534C10.283 11.1534 10.3145 11.1329 10.3747 11.0874C10.4736 11.0141 10.5344 10.9621 10.6165 10.8763C10.6774 10.8133 10.7301 10.7393 10.7705 10.655C10.8276 10.5355 10.8848 10.3075 10.9083 10.1177C10.9259 9.97257 10.9207 9.8934 10.9185 9.84429C10.9156 9.76587 10.8504 9.6845 10.7793 9.65005L10.3527 9.45875C10.3527 9.45875 9.71497 9.18094 9.32502 9.00356C9.28421 8.98575 9.24049 8.97556 9.19601 8.97351C9.14586 8.96836 9.09519 8.974 9.0474 8.99006C8.99961 9.00611 8.95581 9.03221 8.91895 9.0666C8.91528 9.06513 8.86617 9.10691 8.33622 9.74901C8.30581 9.78988 8.26391 9.82077 8.21587 9.83774C8.16783 9.85471 8.11583 9.85699 8.06649 9.84429C8.01874 9.83149 7.97195 9.81532 7.92649 9.79592C7.8356 9.7578 7.80408 9.74314 7.74178 9.71675C7.32109 9.53318 6.9316 9.28514 6.58733 8.98157C6.49497 8.90095 6.40921 8.81299 6.32126 8.72796C6.03289 8.4518 5.78158 8.13938 5.57361 7.79854L5.53037 7.72891C5.4993 7.68212 5.47419 7.63164 5.4556 7.57864C5.42775 7.4709 5.50031 7.3844 5.50031 7.3844C5.50031 7.3844 5.67843 7.18943 5.76126 7.08388C5.84188 6.98126 5.91005 6.88158 5.95403 6.81048C6.04052 6.67121 6.06764 6.52828 6.0222 6.4176C5.81696 5.91624 5.6044 5.41708 5.38597 4.92158C5.34272 4.82336 5.21445 4.75299 5.09791 4.73907C5.05833 4.73467 5.01874 4.73027 4.97916 4.72734C4.88073 4.72245 4.78209 4.72343 4.68377 4.73027L4.8311 4.72441L4.83183 4.72514Z" fill="#FE8000"/>
</svg>
