<svg width="17" height="11" viewBox="0 0 17 11" fill="none" xmlns="http://www.w3.org/2000/svg">
<path fill-rule="evenodd" clip-rule="evenodd" d="M16.3262 1.45869C16.4402 1.0626 16.3262 0.771484 15.7838 0.771484H13.9902C13.5341 0.771484 13.324 1.02294 13.21 1.30031C13.21 1.30031 12.2978 3.61765 11.0056 5.12292C10.5876 5.55867 10.3976 5.69715 10.1696 5.69715C10.0555 5.69715 9.89053 5.55867 9.89053 5.16258V1.45869C9.89053 0.983281 9.75819 0.771484 9.37807 0.771484H6.55957C6.27464 0.771484 6.10323 0.992095 6.10323 1.20122C6.10323 1.65192 6.74918 1.75582 6.8158 3.02339V5.77661C6.8158 6.38021 6.71126 6.48971 6.48321 6.48971C5.87519 6.48971 4.39624 4.16183 3.51892 1.49835C3.34699 0.98061 3.17455 0.771484 2.71616 0.771484H0.922563C0.410108 0.771484 0.307617 1.02294 0.307617 1.30031C0.307617 1.79548 0.915773 4.25157 3.13893 7.49982C4.62121 9.71794 6.70921 10.9206 8.60939 10.9206C9.7496 10.9206 9.89053 10.6535 9.89053 10.1935V8.51687C9.89053 7.9827 9.99853 7.87614 10.3594 7.87614C10.6256 7.87614 11.0816 8.01475 12.1458 9.08428C13.3619 10.3517 13.5623 10.9206 14.2464 10.9206H16.04C16.5524 10.9206 16.8087 10.6535 16.6608 10.1264C16.4991 9.60109 15.9185 8.8391 15.1481 7.93556C14.73 7.4205 14.1029 6.8659 13.913 6.58867C13.647 6.23211 13.7229 6.07373 13.913 5.75697C13.913 5.75697 16.0982 2.54825 16.3262 1.45882V1.45869Z" fill="white"/>
</svg>
