<svg width="19" height="18" viewBox="0 0 19 18" fill="none" xmlns="http://www.w3.org/2000/svg">
<path fill-rule="evenodd" clip-rule="evenodd" d="M0.578125 9.25C0.578125 11.5706 1.5 13.7962 3.14094 15.4372C4.78188 17.0781 7.00748 18 9.32812 18C11.6488 18 13.8744 17.0781 15.5153 15.4372C17.1563 13.7962 18.0781 11.5706 18.0781 9.25C18.0781 6.92936 17.1563 4.70376 15.5153 3.06282C13.8744 1.42187 11.6488 0.5 9.32812 0.5C7.00748 0.5 4.78188 1.42187 3.14094 3.06282C1.5 4.70376 0.578125 6.92936 0.578125 9.25ZM16.5781 9.25C16.5781 11.1728 15.8143 13.0169 14.4546 14.3765C13.095 15.7362 11.2509 16.5 9.32812 16.5C7.40531 16.5 5.56124 15.7362 4.2016 14.3765C2.84196 13.0169 2.07812 11.1728 2.07812 9.25C2.07812 7.32718 2.84196 5.48311 4.2016 4.12348C5.56124 2.76384 7.40531 2 9.32812 2C11.2509 2 13.095 2.76384 14.4546 4.12348C15.8143 5.48311 16.5781 7.32718 16.5781 9.25Z" fill="#FE8000"/>
<path fill-rule="evenodd" clip-rule="evenodd" d="M5.57812 9.25C5.57812 13.772 7.06913 17.5 9.32812 17.5C11.5871 17.5 13.0781 13.772 13.0781 9.25C13.0781 4.728 11.5871 1 9.32812 1C7.06913 1 5.57812 4.728 5.57812 9.25ZM11.5781 9.25C11.5781 13.012 10.3831 16 9.32812 16C8.27313 16 7.07812 13.012 7.07812 9.25C7.07812 5.488 8.27313 2.5 9.32812 2.5C10.3831 2.5 11.5781 5.488 11.5781 9.25Z" fill="#FE8000"/>
<path d="M2.93012 4.717L3.93612 3.605C4.03612 3.695 4.14513 3.785 4.26113 3.872C5.53212 4.824 7.56112 5.412 9.77612 5.412C11.6671 5.412 13.4281 4.985 14.7071 4.254C15.0151 4.078 15.2891 3.887 15.5261 3.684L16.5001 4.825C16.1747 5.10101 15.8238 5.34544 15.4521 5.555C13.9361 6.423 11.9181 6.911 9.77612 6.911C7.25412 6.911 4.91113 6.233 3.36112 5.072C3.21208 4.96035 3.06826 4.84189 2.93012 4.717ZM2.93012 13.799L3.93612 14.911C4.03612 14.82 4.14513 14.731 4.26113 14.644C5.53212 13.692 7.56112 13.104 9.77612 13.104C11.6671 13.104 13.4281 13.531 14.7071 14.262C15.0151 14.438 15.2891 14.629 15.5261 14.832L16.5001 13.691C16.1743 13.4155 15.8235 13.1711 15.4521 12.961C13.9361 12.093 11.9181 11.605 9.77612 11.605C7.25412 11.605 4.91113 12.283 3.36112 13.444C3.21208 13.5556 3.06826 13.6741 2.93012 13.799ZM1.07812 10V8.5H17.5781V10H1.07812Z" fill="#FE8000"/>
</svg>
